<?xml version="1.0" standalone="no"?>
<!DOCTYPE svg PUBLIC "-//W3C//DTD SVG 20010904//EN"
 "http://www.w3.org/TR/2001/REC-SVG-20010904/DTD/svg10.dtd">
<svg version="1.0" xmlns="http://www.w3.org/2000/svg"
 width="1024.000000pt" height="1024.000000pt" viewBox="0 0 1024.000000 1024.000000"
 preserveAspectRatio="xMidYMid meet">
<metadata>
Created by potrace 1.14, written by Peter Selinger 2001-2017
</metadata>
<g transform="translate(0.000000,1024.000000) scale(0.100000,-0.100000)"
fill="#000000" stroke="none">
<path d="M4955 9343 c-307 -37 -545 -103 -770 -214 -249 -122 -400 -232 -591
-429 -109 -112 -271 -329 -325 -432 -107 -207 -178 -392 -205 -533 -2 -11 -5
-29 -8 -40 -2 -11 -5 -25 -5 -32 -1 -6 -25 -22 -54 -36 -87 -39 -138 -103
-172 -211 -20 -66 -27 -314 -12 -416 20 -134 133 -262 232 -262 14 0 25 -2 25
-3 0 -2 21 -63 46 -136 52 -151 127 -316 179 -395 41 -62 42 -69 13 -85 -36
-19 -103 -94 -126 -141 -36 -74 -40 -115 -40 -440 l0 -317 -33 -43 c-18 -24
-36 -45 -39 -48 -17 -15 -106 -139 -166 -230 -152 -235 -302 -592 -340 -810
-3 -14 -7 -32 -9 -40 -2 -8 -7 -37 -11 -65 -3 -27 -8 -52 -9 -55 -9 -15 -19
-204 -19 -350 0 -138 4 -179 22 -250 83 -317 328 -537 606 -544 125 -4 262 39
336 104 14 12 34 30 45 39 11 9 36 35 54 58 19 24 37 43 40 43 4 0 6 -309 6
-686 l0 -687 -59 -39 c-96 -64 -193 -187 -206 -263 -1 -5 -5 -14 -10 -20 -8
-11 -15 -47 -26 -130 -3 -27 -8 -52 -9 -53 -2 -2 -36 -8 -77 -13 -40 -5 -91
-11 -113 -14 -22 -3 -58 -8 -80 -10 -22 -3 -71 -12 -108 -20 -37 -9 -72 -13
-78 -10 -5 4 -9 2 -9 -3 0 -5 -6 -9 -12 -10 -37 -3 -88 -28 -86 -42 3 -15 78
-60 89 -54 3 2 21 -1 40 -6 19 -6 45 -12 59 -15 78 -13 159 -26 190 -30 188
-22 234 -27 290 -31 36 -2 85 -7 110 -10 25 -4 68 -8 95 -9 28 -2 91 -6 140
-9 186 -13 234 -15 400 -22 94 -3 204 -7 245 -10 100 -5 1294 -5 1440 0 63 3
169 7 235 10 66 4 172 9 235 11 63 3 129 8 145 10 17 3 80 7 141 10 61 3 126
7 145 10 19 2 65 6 102 10 38 3 100 10 138 15 38 6 72 9 77 8 4 -1 23 2 42 5
19 4 55 9 80 12 25 2 59 7 75 11 17 3 41 7 55 9 14 2 25 4 25 5 0 2 37 10 60
13 11 1 22 4 25 7 3 3 24 14 48 24 40 18 41 20 26 37 -9 10 -30 21 -48 25 -17
3 -35 9 -41 12 -5 3 -16 7 -25 8 -8 1 -28 4 -45 8 -16 3 -50 9 -75 12 -25 3
-52 7 -60 9 -8 2 -40 7 -70 10 -30 3 -82 8 -115 12 -33 4 -63 6 -67 5 -5 -1
-8 4 -9 10 -7 91 -13 120 -34 183 -42 127 -117 224 -222 292 -29 18 -53 41
-54 51 -3 98 0 1338 3 1342 3 3 24 -19 49 -49 170 -209 491 -247 731 -87 146
96 252 253 299 439 28 109 34 351 14 536 -21 188 -76 420 -130 546 -7 17 -32
75 -55 130 -79 186 -196 386 -313 537 -34 44 -74 97 -89 117 l-27 36 -3 340
-3 340 -26 55 c-24 52 -119 161 -150 172 -15 6 -20 -4 53 115 67 111 188 404
188 458 0 9 10 19 23 24 84 33 113 50 151 87 46 45 72 93 90 164 13 47 14 348
2 409 -19 98 -97 199 -185 240 -46 22 -48 25 -60 84 -97 459 -360 876 -751
1188 -178 142 -479 296 -699 360 -81 23 -245 57 -313 65 -29 3 -57 8 -61 11
-10 6 -378 11 -422 6z m246 -6824 c15 -18 36 -64 52 -117 24 -81 151 -580 161
-633 2 -13 22 -103 45 -199 22 -96 43 -188 46 -205 6 -32 16 -83 18 -100 1 -6
-136 -11 -390 -13 -448 -3 -404 -14 -377 98 9 36 17 74 20 85 2 11 6 31 9 45
3 14 7 34 9 45 3 11 23 95 45 187 22 92 43 178 45 190 21 105 141 552 157 584
35 73 110 88 160 33z"/>
</g>
</svg>
